<?xml version="1.0" encoding="utf-8"?>
<!-- Generator: Adobe Illustrator 15.0.0, SVG Export Plug-In . SVG Version: 6.00 Build 0)  -->
<!DOCTYPE svg PUBLIC "-//W3C//DTD SVG 1.1//EN" "http://www.w3.org/Graphics/SVG/1.1/DTD/svg11.dtd">
<svg version="1.1" id="Camada_1" xmlns="http://www.w3.org/2000/svg" xmlns:xlink="http://www.w3.org/1999/xlink" x="0px" y="0px"
	 width="32px" height="32px" viewBox="0 0 32 32" enable-background="new 0 0 32 32" xml:space="preserve">
<path fill="#253887" d="M12.276,31.598c0,0.223,0.18,0.402,0.403,0.402h5.745c0.223,0,0.403-0.18,0.403-0.402V15.874h4.165
	c0.21,0,0.384-0.16,0.402-0.37l0.397-4.736c0.021-0.222-0.146-0.417-0.368-0.436c-0.01-0.001-0.021-0.001-0.031-0.001h-4.565V6.97
	c0-0.788,0.638-1.427,1.426-1.427h3.21c0.223,0,0.403-0.18,0.403-0.403V0.403C23.866,0.181,23.686,0,23.463,0l0,0H18.04
	c-3.183,0-5.763,2.58-5.763,5.763l0,0v4.568H9.403C9.181,10.331,9,10.511,9,10.733v4.738c0,0.223,0.18,0.403,0.403,0.403h2.873
	V31.598z"/>
</svg>
