<?xml version="1.0" encoding="utf-8"?>
<!-- Generator: Adobe Illustrator 15.0.0, SVG Export Plug-In . SVG Version: 6.00 Build 0)  -->
<!DOCTYPE svg PUBLIC "-//W3C//DTD SVG 1.1//EN" "http://www.w3.org/Graphics/SVG/1.1/DTD/svg11.dtd">
<svg version="1.1" id="Camada_1" xmlns="http://www.w3.org/2000/svg" xmlns:xlink="http://www.w3.org/1999/xlink" x="0px" y="0px"
	 width="32px" height="32px" viewBox="0 0 32 32" enable-background="new 0 0 32 32" xml:space="preserve">
<path fill="#253887" d="M28.98,22.361c0,3.656-2.963,6.619-6.619,6.619l0,0H9.639c-3.656,0-6.62-2.963-6.62-6.619V9.638
	c0-3.656,2.964-6.62,6.62-6.62h12.722c3.656,0,6.619,2.964,6.619,6.62V22.361z M32,9.638C32,4.315,27.684,0,22.359,0H9.64
	C4.315,0,0,4.315,0,9.638v12.723C0,27.684,4.316,32,9.64,32h12.719C27.684,32,32,27.684,32,22.359V9.638z M16.054,21.268
	c-2.794-0.002-5.059-2.268-5.062-5.062c0.003-2.794,2.268-5.059,5.062-5.062c2.793,0.002,5.059,2.268,5.062,5.062
	C21.113,19,18.85,21.266,16.054,21.268z M16.054,8.304c-4.357,0-7.902,3.545-7.902,7.902c0,4.358,3.545,7.901,7.902,7.901
	c4.358,0,7.903-3.543,7.903-7.901C23.957,11.849,20.412,8.304,16.054,8.304z M24.418,5.891c-1.039,0-1.881,0.842-1.881,1.881
	s0.842,1.881,1.881,1.881s1.881-0.842,1.881-1.881S25.457,5.891,24.418,5.891z"/>
</svg>
